{
  "accessors": [
    {
      "bufferView": 2,
      "componentType": 5126,
      "count": 1773,
      "max": [
        2.6078367233276367,
        2.2047243118286133,
        2.6832070350646973
      ],
      "min": [
        -2.6078367233276367,
        -2.2047243118286133,
        -2.6832070350646973
      ],
      "type": "VEC3"
    },
    {
      "bufferView": 2,
      "byteOffset": 21276,
      "componentType": 5126,
      "count": 1773,
      "max": [
        1.0,
        1.0,
        0.9967390894889832
      ],
      "min": [
        -1.0,
        -1.0,
        -1.0
      ],
      "type": "VEC3"
    },
    {
      "bufferView": 3,
      "componentType": 5126,
      "count": 1773,
      "max": [
        0.9999400973320007,
        1.0,
        0.9971288442611694,
        1.0
      ],
      "min": [
        -0.9999966025352478,
        -0.9996066093444824,
        -0.9971272349357605,
        -1.0
      ],
      "type": "VEC4"
    },
    {
      "bufferView": 1,
      "componentType": 5126,
      "count": 1773,
      "max": [
        0.9857157468795776,
        1.0000554323196411
      ],
      "min": [
        0.004118255339562893,
        0.0037128832191228867
      ],
      "type": "VEC2"
    },
    {
      "bufferView": 1,
      "byteOffset": 14184,
      "componentType": 5126,
      "count": 1773,
      "max": [
        0.9857157468795776,
        1.0000554323196411
      ],
      "min": [
        0.004118255339562893,
        0.0037128832191228867
      ],
      "type": "VEC2"
    },
    {
      "bufferView": 1,
      "byteOffset": 28368,
      "componentType": 5126,
      "count": 1773,
      "max": [
        0.9857157468795776,
        1.0000554323196411
      ],
      "min": [
        0.004118255339562893,
        0.0037128832191228867
      ],
      "type": "VEC2"
    },
    {
      "bufferView": 0,
      "componentType": 5125,
      "count": 7866,
      "type": "SCALAR"
    }
  ],
  "asset": {
    "extras": {
      "author": "plaggy (https://sketchfab.com/plaggy)",
      "license": "CC-BY-4.0 (http://creativecommons.org/licenses/by/4.0/)",
      "source": "https://sketchfab.com/3d-models/cc0-bomb-d0ea548218ee47ce97e195d2f199a9de",
      "title": "CC0 - Bomb"
    },
    "generator": "Sketchfab-14.64.0",
    "version": "2.0"
  },
  "bufferViews": [
    {
      "buffer": 0,
      "byteLength": 31464,
      "name": "floatBufferViews",
      "target": 34963
    },
    {
      "buffer": 0,
      "byteLength": 42552,
      "byteOffset": 31464,
      "byteStride": 8,
      "name": "floatBufferViews",
      "target": 34962
    },
    {
      "buffer": 0,
      "byteLength": 42552,
      "byteOffset": 74016,
      "byteStride": 12,
      "name": "floatBufferViews",
      "target": 34962
    },
    {
      "buffer": 0,
      "byteLength": 28368,
      "byteOffset": 116568,
      "byteStride": 16,
      "name": "floatBufferViews",
      "target": 34962
    }
  ],
  "buffers": [
    {
      "byteLength": 144936,
      "uri": "scene.bin"
    }
  ],
  "images": [
    {
      "uri": "textures/Bomb_baseColor.png"
    },
    {
      "uri": "textures/Bomb_metallicRoughness.png"
    },
    {
      "uri": "textures/Bomb_normal.png"
    }
  ],
  "materials": [
    {
      "name": "Bomb",
      "normalTexture": {
        "index": 2
      },
      "occlusionTexture": {
        "index": 1
      },
      "pbrMetallicRoughness": {
        "baseColorTexture": {
          "index": 0
        },
        "metallicRoughnessTexture": {
          "index": 1
        }
      }
    }
  ],
  "meshes": [
    {
      "name": "Bomb_Bomb_0",
      "primitives": [
        {
          "attributes": {
            "NORMAL": 1,
            "POSITION": 0,
            "TANGENT": 2,
            "TEXCOORD_0": 3,
            "TEXCOORD_1": 4,
            "TEXCOORD_2": 5
          },
          "indices": 6,
          "material": 0,
          "mode": 4
        }
      ]
    }
  ],
  "nodes": [
    {
      "children": [
        1
      ],
      "matrix": [
        1.0,
        0.0,
        0.0,
        0.0,
        0.0,
        2.220446049250313e-16,
        -1.0,
        0.0,
        0.0,
        1.0,
        2.220446049250313e-16,
        0.0,
        0.0,
        0.0,
        0.0,
        1.0
      ],
      "name": "Sketchfab_model"
    },
    {
      "children": [
        2
      ],
      "matrix": [
        0.02539999969303608,
        0.0,
        0.0,
        0.0,
        0.0,
        0.0,
        0.02539999969303608,
        0.0,
        0.0,
        -0.02539999969303608,
        0.0,
        0.0,
        0.0,
        0.0,
        0.0,
        1.0
      ],
      "name": "bcb19309a3134bf48a1ffce5dd332d79.fbx"
    },
    {
      "children": [
        3
      ],
      "name": "RootNode"
    },
    {
      "children": [
        4
      ],
      "matrix": [
        1.0,
        0.0,
        0.0,
        0.0,
        0.0,
        2.220446049250313e-16,
        -1.0,
        0.0,
        0.0,
        1.0,
        2.220446049250313e-16,
        0.0,
        0.0,
        0.0,
        0.0,
        1.0
      ],
      "name": "Bomb"
    },
    {
      "mesh": 0,
      "name": "Bomb_Bomb_0"
    }
  ],
  "samplers": [
    {
      "magFilter": 9729,
      "minFilter": 9987,
      "wrapS": 10497,
      "wrapT": 10497
    }
  ],
  "scene": 0,
  "scenes": [
    {
      "name": "Sketchfab_Scene",
      "nodes": [
        0
      ]
    }
  ],
  "textures": [
    {
      "sampler": 0,
      "source": 0
    },
    {
      "sampler": 0,
      "source": 1
    },
    {
      "sampler": 0,
      "source": 2
    }
  ]
}
