{
    "asset": {
        "copyright": "2020 (c) Adobe Inc.",
        "generator": "Adobe Dimension - a39c749b7f1dd68e8fcb597e3575f0bb9d09bfc8",
        "version": "2.0",
        "extensions": {
            "KHR_xmp": {
                "packet": 0
            }
        }
    },
    "accessors": [
        {
            "bufferView": 0,
            "componentType": 5126,
            "count": 212658,
            "type": "VEC3",
            "max": [
                0.17613424360752107,
                0.50288987159729,
                0.50288987159729
            ],
            "min": [
                -0.172679141163826,
                -0.50288987159729,
                -0.50288987159729
            ]
        },
        {
            "bufferView": 1,
            "componentType": 5126,
            "count": 212658,
            "type": "VEC3"
        },
        {
            "bufferView": 2,
            "componentType": 5126,
            "count": 212658,
            "type": "VEC2"
        },
        {
            "bufferView": 3,
            "componentType": 5125,
            "count": 212658,
            "type": "SCALAR",
            "max": [
                212657.0
            ],
            "min": [
                0.0
            ]
        }
    ],
    "bufferViews": [
        {
            "buffer": 0,
            "byteOffset": 0,
            "byteLength": 2551896,
            "target": 34962
        },
        {
            "buffer": 0,
            "byteOffset": 2551896,
            "byteLength": 2551896,
            "target": 34962
        },
        {
            "buffer": 0,
            "byteOffset": 5103792,
            "byteLength": 1701264,
            "target": 34962
        },
        {
            "buffer": 0,
            "byteOffset": 6805056,
            "byteLength": 850632,
            "target": 34963
        }
    ],
    "buffers": [
        {
            "byteLength": 7655688,
            "uri": "Tire_binary.bin"
        }
    ],
    "cameras": [
        {
            "perspective": {
                "znear": 0.000039633963751839477,
                "yfov": 0.7124999761581421,
                "zfar": 2.17986798286438,
                "aspectRatio": 1.7777777910232545
            },
            "type": "perspective",
            "name": "render_camera"
        }
    ],
    "materials": [
        {
            "pbrMetallicRoughness": {
                "baseColorFactor": [
                    0.02028851956129074,
                    0.02028851956129074,
                    0.02028851956129074,
                    1.0
                ],
                "metallicFactor": 0.0,
                "roughnessFactor": 0.301511287689209
            },
            "name": "Rubber - Soft",
            "doubleSided": true
        }
    ],
    "meshes": [
        {
            "name": "Body25",
            "primitives": [
                {
                    "attributes": {
                        "NORMAL": 1,
                        "POSITION": 0,
                        "TEXCOORD_0": 2
                    },
                    "indices": 3,
                    "material": 0
                }
            ]
        },
        {
            "name": "Body25",
            "primitives": [
                {
                    "attributes": {
                        "POSITION": 0,
                        "NORMAL": 1,
                        "TEXCOORD_0": 2
                    },
                    "indices": 3,
                    "material": 0
                }
            ]
        },
        {
            "name": "Body25",
            "primitives": [
                {
                    "attributes": {
                        "NORMAL": 1,
                        "POSITION": 0,
                        "TEXCOORD_0": 2
                    },
                    "indices": 3,
                    "material": 0
                }
            ]
        },
        {
            "name": "Body25",
            "primitives": [
                {
                    "attributes": {
                        "POSITION": 0,
                        "NORMAL": 1,
                        "TEXCOORD_0": 2
                    },
                    "indices": 3,
                    "material": 0
                }
            ]
        }
    ],
    "nodes": [
        {
            "translation": [
                -2.6030941009521486,
                1.716853141784668,
                -1.0264781713485718
            ],
            "rotation": [
                -0.14091891050338746,
                -0.7600076794624329,
                -0.17567476630210877,
                0.6096462607383728
            ],
            "camera": 0,
            "name": "render_camera_n3d"
        },
        {
            "children": [
                2
            ],
            "translation": [
                -0.45445600152015688,
                0.5196073651313782,
                -0.5024981498718262
            ],
            "rotation": [
                -0.4443187415599823,
                -0.4443187415599823,
                0.550073504447937,
                0.550073504447937
            ],
            "scale": [
                1.0,
                1.0,
                0.9999999403953552
            ],
            "name": "Tire 4"
        },
        {
            "children": [
                3
            ],
            "scale": [
                2.5399999618530275,
                2.5399999618530275,
                2.5399999618530275
            ],
            "name": "Tesla Wheel v6"
        },
        {
            "scale": [
                0.39370080828666689,
                0.39370080828666689,
                0.39370080828666689
            ],
            "mesh": 0,
            "name": "Body25"
        },
        {
            "children": [
                5
            ],
            "translation": [
                -0.4544559717178345,
                0.8648643493652344,
                -0.5024981498718262
            ],
            "rotation": [
                -0.4443187415599823,
                -0.4443187415599823,
                0.550073504447937,
                0.550073504447937
            ],
            "scale": [
                1.0,
                1.0,
                0.9999999403953552
            ],
            "name": "Tire 3"
        },
        {
            "children": [
                6
            ],
            "scale": [
                2.5399999618530275,
                2.5399999618530275,
                2.5399999618530275
            ],
            "name": "Tesla Wheel v6"
        },
        {
            "scale": [
                0.39370080828666689,
                0.39370080828666689,
                0.39370080828666689
            ],
            "mesh": 1,
            "name": "Body25"
        },
        {
            "children": [
                8
            ],
            "translation": [
                -0.45445600152015688,
                1.203618049621582,
                -0.5024981498718262
            ],
            "rotation": [
                -0.4443187415599823,
                -0.4443187415599823,
                0.550073504447937,
                0.550073504447937
            ],
            "scale": [
                1.0,
                1.0,
                0.9999999403953552
            ],
            "name": "Tire 2"
        },
        {
            "children": [
                9
            ],
            "scale": [
                2.5399999618530275,
                2.5399999618530275,
                2.5399999618530275
            ],
            "name": "Tesla Wheel v6"
        },
        {
            "scale": [
                0.39370080828666689,
                0.39370080828666689,
                0.39370080828666689
            ],
            "mesh": 2,
            "name": "Body25"
        },
        {
            "children": [
                11
            ],
            "translation": [
                -0.4544559419155121,
                0.172679141163826,
                -0.5024981498718262
            ],
            "rotation": [
                -0.4443187415599823,
                -0.4443187415599823,
                0.550073504447937,
                0.550073504447937
            ],
            "scale": [
                1.0,
                1.0,
                0.9999999403953552
            ],
            "name": "Tire"
        },
        {
            "children": [
                12
            ],
            "scale": [
                2.5399999618530275,
                2.5399999618530275,
                2.5399999618530275
            ],
            "name": "Tesla Wheel v6"
        },
        {
            "scale": [
                0.39370080828666689,
                0.39370080828666689,
                0.39370080828666689
            ],
            "mesh": 3,
            "name": "Body25"
        }
    ],
    "scenes": [
        {
            "nodes": [
                0,
                1,
                4,
                7,
                10
            ],
            "name": "scene"
        }
    ],
    "scene": 0,
    "extensions": {
        "KHR_xmp": {
            "@context": {
                "dc": "http://purl.org/dc/elements/1.1/"
            },
            "packets": [
                {
                    "dc:date": "2021-01-31T03:54:52.264-07:00",
                    "dc:format": "model/gltf+json",
                    "dc:title": "Tire.dn",
                    "xmp:CreatorTool": "AdobeDCXTest"
                }
            ]
        }
    },
    "extensionsUsed": [
        "KHR_xmp"
    ]
}